<svg width="33" height="25" viewBox="0 0 33 25" fill="none" xmlns="http://www.w3.org/2000/svg" class="h-10" aria-label="Author Logo"><path d="M23.4754 14.3286C19.188 11.8205 13.8144 11.8199 9.5272 14.3281C9.45897 14.3682 9.37924 14.3048 9.40682 14.2309C9.77462 13.2395 10.161 12.2282 10.5608 11.2287C10.8289 10.5575 11.1028 9.89366 11.3795 9.24411C12.376 6.90613 13.4105 4.87015 14.3778 3.48319C14.9122 2.71616 15.4267 2.14094 15.9015 1.83801C16.1196 1.69812 16.3187 1.63037 16.5163 1.64086C16.6813 1.63168 16.8822 1.69878 17.1009 1.83844C17.575 2.14094 18.0891 2.71557 18.623 3.48096C19.5898 4.86733 20.6244 6.90222 21.6206 9.23976C21.8972 9.88931 22.1708 10.5533 22.4392 11.2245C22.8394 12.2251 23.2276 13.2387 23.5958 14.2309C23.6234 14.3048 23.5436 14.3686 23.4754 14.3286ZM16.4964 0.315039C16.1832 0.315256 15.8855 0.379078 15.613 0.491421C15.597 0.498415 15.5813 0.504971 15.5649 0.51284C15.466 0.556334 15.3737 0.610104 15.282 0.666056C15.2344 0.695562 15.1834 0.730967 15.1334 0.765282C14.09 1.47475 12.5163 3.23243 10.1931 7.21427C9.81901 7.85536 9.42363 8.55997 9.00938 9.32146C7.31353 12.4409 5.2796 16.6011 2.83994 22.1535C2.45984 23.0185 1.51608 23.4942 0.595708 23.2818L0.554641 23.2725C0.526638 23.2662 0.5 23.2874 0.5 23.3165V24.4968C0.50111 24.4978 0.501708 24.4985 0.503244 24.4997L3.5846 24.5C4.80446 24.5 5.88347 23.7074 6.24 22.5408C6.40298 22.0075 6.59755 21.3922 6.81852 20.7304C8.19983 16.5966 12.0221 13.6917 16.3803 13.6539C16.4363 13.6532 16.4918 13.6532 16.5475 13.6539C20.9508 13.6684 24.8159 16.6235 26.2071 20.8015C26.4182 21.4359 26.6046 22.0264 26.762 22.5408C27.1187 23.7074 28.1975 24.5 29.4176 24.5L32.5 24.4997V23.2599C31.5324 23.4949 30.5336 22.9986 30.1329 22.0875C27.7055 16.5656 25.6799 12.4249 23.9901 9.31711C23.5762 8.55606 23.1808 7.85101 22.8062 7.20974C20.4749 3.21477 18.8985 1.45967 17.8554 0.756542C17.8154 0.729441 17.7745 0.70015 17.7359 0.676327C17.6378 0.614254 17.5364 0.55677 17.4288 0.50956C17.4166 0.503658 17.4045 0.498413 17.3923 0.492949C17.1235 0.381481 16.8294 0.317661 16.5211 0.315039" fill="#F55F23"></path></svg>